<?xml version="1.0" encoding="UTF-8"?>
<svg xmlns="http://www.w3.org/2000/svg" xmlns:xlink="http://www.w3.org/1999/xlink" width="6864pt" height="800pt" viewBox="0 0 6864 800" version="1.1">
<g id="surface183">
<path style="fill:none;stroke-width:0.0125;stroke-linecap:butt;stroke-linejoin:miter;stroke:rgb(0%,0%,0%);stroke-opacity:1;stroke-miterlimit:10;" d="M 0 0.111113 L 1 0.111113 " transform="matrix(6864,0,0,800,0,0)"/>
<path style=" stroke:none;fill-rule:nonzero;fill:rgb(0%,0%,0%);fill-opacity:1;" d="M 1268 78.890625 L 1408 78.890625 L 1408 98.890625 L 1268 98.890625 Z M 1268 78.890625 "/>
<path style=" stroke:none;fill-rule:nonzero;fill:rgb(0%,0%,0%);fill-opacity:1;" d="M 4700 78.890625 L 4840 78.890625 L 4840 98.890625 L 4700 98.890625 Z M 4700 78.890625 "/>
<path style=" stroke:none;fill-rule:nonzero;fill:rgb(0%,100%,0%);fill-opacity:1;" d="M 920 73.890625 L 936 73.890625 L 936 103.890625 L 920 103.890625 Z M 920 73.890625 "/>
<path style=" stroke:none;fill-rule:nonzero;fill:rgb(0%,100%,0%);fill-opacity:1;" d="M 2248 73.890625 L 2264 73.890625 L 2264 103.890625 L 2248 103.890625 Z M 2248 73.890625 "/>
<path style=" stroke:none;fill-rule:nonzero;fill:rgb(0%,100%,0%);fill-opacity:1;" d="M 2256 73.890625 L 2272 73.890625 L 2272 103.890625 L 2256 103.890625 Z M 2256 73.890625 "/>
<path style=" stroke:none;fill-rule:nonzero;fill:rgb(0%,100%,0%);fill-opacity:1;" d="M 2984 73.890625 L 3000 73.890625 L 3000 103.890625 L 2984 103.890625 Z M 2984 73.890625 "/>
<path style=" stroke:none;fill-rule:nonzero;fill:rgb(0%,100%,0%);fill-opacity:1;" d="M 3264 73.890625 L 3280 73.890625 L 3280 103.890625 L 3264 103.890625 Z M 3264 73.890625 "/>
<path style=" stroke:none;fill-rule:nonzero;fill:rgb(0%,100%,0%);fill-opacity:1;" d="M 4352 73.890625 L 4368 73.890625 L 4368 103.890625 L 4352 103.890625 Z M 4352 73.890625 "/>
<path style=" stroke:none;fill-rule:nonzero;fill:rgb(0%,100%,0%);fill-opacity:1;" d="M 5680 73.890625 L 5696 73.890625 L 5696 103.890625 L 5680 103.890625 Z M 5680 73.890625 "/>
<path style=" stroke:none;fill-rule:nonzero;fill:rgb(0%,100%,0%);fill-opacity:1;" d="M 5688 73.890625 L 5704 73.890625 L 5704 103.890625 L 5688 103.890625 Z M 5688 73.890625 "/>
<path style=" stroke:none;fill-rule:nonzero;fill:rgb(0%,100%,0%);fill-opacity:1;" d="M 6416 73.890625 L 6432 73.890625 L 6432 103.890625 L 6416 103.890625 Z M 6416 73.890625 "/>
<path style=" stroke:none;fill-rule:nonzero;fill:rgb(0%,100%,0%);fill-opacity:1;" d="M 6696 73.890625 L 6712 73.890625 L 6712 103.890625 L 6696 103.890625 Z M 6696 73.890625 "/>
<path style=" stroke:none;fill-rule:nonzero;fill:rgb(100%,0%,0%);fill-opacity:1;" d="M 0 73.890625 L 12 73.890625 L 12 103.890625 L 0 103.890625 Z M 0 73.890625 "/>
<path style=" stroke:none;fill-rule:nonzero;fill:rgb(100%,0%,0%);fill-opacity:1;" d="M 4 73.890625 L 16 73.890625 L 16 103.890625 L 4 103.890625 Z M 4 73.890625 "/>
<path style=" stroke:none;fill-rule:nonzero;fill:rgb(100%,0%,0%);fill-opacity:1;" d="M 828 73.890625 L 840 73.890625 L 840 103.890625 L 828 103.890625 Z M 828 73.890625 "/>
<path style=" stroke:none;fill-rule:nonzero;fill:rgb(100%,0%,0%);fill-opacity:1;" d="M 1168 73.890625 L 1180 73.890625 L 1180 103.890625 L 1168 103.890625 Z M 1168 73.890625 "/>
<path style=" stroke:none;fill-rule:nonzero;fill:rgb(100%,0%,0%);fill-opacity:1;" d="M 1268 73.890625 L 1280 73.890625 L 1280 103.890625 L 1268 103.890625 Z M 1268 73.890625 "/>
<path style=" stroke:none;fill-rule:nonzero;fill:rgb(100%,0%,0%);fill-opacity:1;" d="M 1272 73.890625 L 1284 73.890625 L 1284 103.890625 L 1272 103.890625 Z M 1272 73.890625 "/>
<path style=" stroke:none;fill-rule:nonzero;fill:rgb(100%,0%,0%);fill-opacity:1;" d="M 1276 73.890625 L 1288 73.890625 L 1288 103.890625 L 1276 103.890625 Z M 1276 73.890625 "/>
<path style=" stroke:none;fill-rule:nonzero;fill:rgb(100%,0%,0%);fill-opacity:1;" d="M 2000 73.890625 L 2012 73.890625 L 2012 103.890625 L 2000 103.890625 Z M 2000 73.890625 "/>
<path style=" stroke:none;fill-rule:nonzero;fill:rgb(100%,0%,0%);fill-opacity:1;" d="M 2084 73.890625 L 2096 73.890625 L 2096 103.890625 L 2084 103.890625 Z M 2084 73.890625 "/>
<path style=" stroke:none;fill-rule:nonzero;fill:rgb(100%,0%,0%);fill-opacity:1;" d="M 2104 73.890625 L 2116 73.890625 L 2116 103.890625 L 2104 103.890625 Z M 2104 73.890625 "/>
<path style=" stroke:none;fill-rule:nonzero;fill:rgb(100%,0%,0%);fill-opacity:1;" d="M 2200 73.890625 L 2212 73.890625 L 2212 103.890625 L 2200 103.890625 Z M 2200 73.890625 "/>
<path style=" stroke:none;fill-rule:nonzero;fill:rgb(100%,0%,0%);fill-opacity:1;" d="M 2300 73.890625 L 2312 73.890625 L 2312 103.890625 L 2300 103.890625 Z M 2300 73.890625 "/>
<path style=" stroke:none;fill-rule:nonzero;fill:rgb(100%,0%,0%);fill-opacity:1;" d="M 2304 73.890625 L 2316 73.890625 L 2316 103.890625 L 2304 103.890625 Z M 2304 73.890625 "/>
<path style=" stroke:none;fill-rule:nonzero;fill:rgb(100%,0%,0%);fill-opacity:1;" d="M 2596 73.890625 L 2608 73.890625 L 2608 103.890625 L 2596 103.890625 Z M 2596 73.890625 "/>
<path style=" stroke:none;fill-rule:nonzero;fill:rgb(100%,0%,0%);fill-opacity:1;" d="M 3084 73.890625 L 3096 73.890625 L 3096 103.890625 L 3084 103.890625 Z M 3084 73.890625 "/>
<path style=" stroke:none;fill-rule:nonzero;fill:rgb(100%,0%,0%);fill-opacity:1;" d="M 3156 73.890625 L 3168 73.890625 L 3168 103.890625 L 3156 103.890625 Z M 3156 73.890625 "/>
<path style=" stroke:none;fill-rule:nonzero;fill:rgb(100%,0%,0%);fill-opacity:1;" d="M 3240 73.890625 L 3252 73.890625 L 3252 103.890625 L 3240 103.890625 Z M 3240 73.890625 "/>
<path style=" stroke:none;fill-rule:nonzero;fill:rgb(100%,0%,0%);fill-opacity:1;" d="M 3244 73.890625 L 3256 73.890625 L 3256 103.890625 L 3244 103.890625 Z M 3244 73.890625 "/>
<path style=" stroke:none;fill-rule:nonzero;fill:rgb(100%,0%,0%);fill-opacity:1;" d="M 3428 73.890625 L 3440 73.890625 L 3440 103.890625 L 3428 103.890625 Z M 3428 73.890625 "/>
<path style=" stroke:none;fill-rule:nonzero;fill:rgb(100%,0%,0%);fill-opacity:1;" d="M 3432 73.890625 L 3444 73.890625 L 3444 103.890625 L 3432 103.890625 Z M 3432 73.890625 "/>
<path style=" stroke:none;fill-rule:nonzero;fill:rgb(100%,0%,0%);fill-opacity:1;" d="M 3436 73.890625 L 3448 73.890625 L 3448 103.890625 L 3436 103.890625 Z M 3436 73.890625 "/>
<path style=" stroke:none;fill-rule:nonzero;fill:rgb(100%,0%,0%);fill-opacity:1;" d="M 4260 73.890625 L 4272 73.890625 L 4272 103.890625 L 4260 103.890625 Z M 4260 73.890625 "/>
<path style=" stroke:none;fill-rule:nonzero;fill:rgb(100%,0%,0%);fill-opacity:1;" d="M 4600 73.890625 L 4612 73.890625 L 4612 103.890625 L 4600 103.890625 Z M 4600 73.890625 "/>
<path style=" stroke:none;fill-rule:nonzero;fill:rgb(100%,0%,0%);fill-opacity:1;" d="M 4700 73.890625 L 4712 73.890625 L 4712 103.890625 L 4700 103.890625 Z M 4700 73.890625 "/>
<path style=" stroke:none;fill-rule:nonzero;fill:rgb(100%,0%,0%);fill-opacity:1;" d="M 4704 73.890625 L 4716 73.890625 L 4716 103.890625 L 4704 103.890625 Z M 4704 73.890625 "/>
<path style=" stroke:none;fill-rule:nonzero;fill:rgb(100%,0%,0%);fill-opacity:1;" d="M 4708 73.890625 L 4720 73.890625 L 4720 103.890625 L 4708 103.890625 Z M 4708 73.890625 "/>
<path style=" stroke:none;fill-rule:nonzero;fill:rgb(100%,0%,0%);fill-opacity:1;" d="M 5432 73.890625 L 5444 73.890625 L 5444 103.890625 L 5432 103.890625 Z M 5432 73.890625 "/>
<path style=" stroke:none;fill-rule:nonzero;fill:rgb(100%,0%,0%);fill-opacity:1;" d="M 5516 73.890625 L 5528 73.890625 L 5528 103.890625 L 5516 103.890625 Z M 5516 73.890625 "/>
<path style=" stroke:none;fill-rule:nonzero;fill:rgb(100%,0%,0%);fill-opacity:1;" d="M 5536 73.890625 L 5548 73.890625 L 5548 103.890625 L 5536 103.890625 Z M 5536 73.890625 "/>
<path style=" stroke:none;fill-rule:nonzero;fill:rgb(100%,0%,0%);fill-opacity:1;" d="M 5632 73.890625 L 5644 73.890625 L 5644 103.890625 L 5632 103.890625 Z M 5632 73.890625 "/>
<path style=" stroke:none;fill-rule:nonzero;fill:rgb(100%,0%,0%);fill-opacity:1;" d="M 5732 73.890625 L 5744 73.890625 L 5744 103.890625 L 5732 103.890625 Z M 5732 73.890625 "/>
<path style=" stroke:none;fill-rule:nonzero;fill:rgb(100%,0%,0%);fill-opacity:1;" d="M 5736 73.890625 L 5748 73.890625 L 5748 103.890625 L 5736 103.890625 Z M 5736 73.890625 "/>
<path style=" stroke:none;fill-rule:nonzero;fill:rgb(100%,0%,0%);fill-opacity:1;" d="M 6028 73.890625 L 6040 73.890625 L 6040 103.890625 L 6028 103.890625 Z M 6028 73.890625 "/>
<path style=" stroke:none;fill-rule:nonzero;fill:rgb(100%,0%,0%);fill-opacity:1;" d="M 6516 73.890625 L 6528 73.890625 L 6528 103.890625 L 6516 103.890625 Z M 6516 73.890625 "/>
<path style=" stroke:none;fill-rule:nonzero;fill:rgb(100%,0%,0%);fill-opacity:1;" d="M 6588 73.890625 L 6600 73.890625 L 6600 103.890625 L 6588 103.890625 Z M 6588 73.890625 "/>
<path style=" stroke:none;fill-rule:nonzero;fill:rgb(100%,0%,0%);fill-opacity:1;" d="M 6672 73.890625 L 6684 73.890625 L 6684 103.890625 L 6672 103.890625 Z M 6672 73.890625 "/>
<path style=" stroke:none;fill-rule:nonzero;fill:rgb(100%,0%,0%);fill-opacity:1;" d="M 6676 73.890625 L 6688 73.890625 L 6688 103.890625 L 6676 103.890625 Z M 6676 73.890625 "/>
<path style=" stroke:none;fill-rule:nonzero;fill:rgb(0%,0%,100%);fill-opacity:1;" d="M 1280 73.890625 L 1292 73.890625 L 1292 103.890625 L 1280 103.890625 Z M 1280 73.890625 "/>
<path style=" stroke:none;fill-rule:nonzero;fill:rgb(0%,0%,100%);fill-opacity:1;" d="M 1708 73.890625 L 1720 73.890625 L 1720 103.890625 L 1708 103.890625 Z M 1708 73.890625 "/>
<path style=" stroke:none;fill-rule:nonzero;fill:rgb(0%,0%,100%);fill-opacity:1;" d="M 2204 73.890625 L 2216 73.890625 L 2216 103.890625 L 2204 103.890625 Z M 2204 73.890625 "/>
<path style=" stroke:none;fill-rule:nonzero;fill:rgb(0%,0%,100%);fill-opacity:1;" d="M 2244 73.890625 L 2256 73.890625 L 2256 103.890625 L 2244 103.890625 Z M 2244 73.890625 "/>
<path style=" stroke:none;fill-rule:nonzero;fill:rgb(0%,0%,100%);fill-opacity:1;" d="M 2308 73.890625 L 2320 73.890625 L 2320 103.890625 L 2308 103.890625 Z M 2308 73.890625 "/>
<path style=" stroke:none;fill-rule:nonzero;fill:rgb(0%,0%,100%);fill-opacity:1;" d="M 2600 73.890625 L 2612 73.890625 L 2612 103.890625 L 2600 103.890625 Z M 2600 73.890625 "/>
<path style=" stroke:none;fill-rule:nonzero;fill:rgb(0%,0%,100%);fill-opacity:1;" d="M 3088 73.890625 L 3100 73.890625 L 3100 103.890625 L 3088 103.890625 Z M 3088 73.890625 "/>
<path style=" stroke:none;fill-rule:nonzero;fill:rgb(0%,0%,100%);fill-opacity:1;" d="M 3228 73.890625 L 3240 73.890625 L 3240 103.890625 L 3228 103.890625 Z M 3228 73.890625 "/>
<path style=" stroke:none;fill-rule:nonzero;fill:rgb(0%,0%,100%);fill-opacity:1;" d="M 3260 73.890625 L 3272 73.890625 L 3272 103.890625 L 3260 103.890625 Z M 3260 73.890625 "/>
<path style=" stroke:none;fill-rule:nonzero;fill:rgb(0%,0%,100%);fill-opacity:1;" d="M 4712 73.890625 L 4724 73.890625 L 4724 103.890625 L 4712 103.890625 Z M 4712 73.890625 "/>
<path style=" stroke:none;fill-rule:nonzero;fill:rgb(0%,0%,100%);fill-opacity:1;" d="M 5140 73.890625 L 5152 73.890625 L 5152 103.890625 L 5140 103.890625 Z M 5140 73.890625 "/>
<path style=" stroke:none;fill-rule:nonzero;fill:rgb(0%,0%,100%);fill-opacity:1;" d="M 5636 73.890625 L 5648 73.890625 L 5648 103.890625 L 5636 103.890625 Z M 5636 73.890625 "/>
<path style=" stroke:none;fill-rule:nonzero;fill:rgb(0%,0%,100%);fill-opacity:1;" d="M 5676 73.890625 L 5688 73.890625 L 5688 103.890625 L 5676 103.890625 Z M 5676 73.890625 "/>
<path style=" stroke:none;fill-rule:nonzero;fill:rgb(0%,0%,100%);fill-opacity:1;" d="M 5740 73.890625 L 5752 73.890625 L 5752 103.890625 L 5740 103.890625 Z M 5740 73.890625 "/>
<path style=" stroke:none;fill-rule:nonzero;fill:rgb(0%,0%,100%);fill-opacity:1;" d="M 6032 73.890625 L 6044 73.890625 L 6044 103.890625 L 6032 103.890625 Z M 6032 73.890625 "/>
<path style=" stroke:none;fill-rule:nonzero;fill:rgb(0%,0%,100%);fill-opacity:1;" d="M 6520 73.890625 L 6532 73.890625 L 6532 103.890625 L 6520 103.890625 Z M 6520 73.890625 "/>
<path style=" stroke:none;fill-rule:nonzero;fill:rgb(0%,0%,100%);fill-opacity:1;" d="M 6660 73.890625 L 6672 73.890625 L 6672 103.890625 L 6660 103.890625 Z M 6660 73.890625 "/>
<path style=" stroke:none;fill-rule:nonzero;fill:rgb(0%,0%,100%);fill-opacity:1;" d="M 6692 73.890625 L 6704 73.890625 L 6704 103.890625 L 6692 103.890625 Z M 6692 73.890625 "/>
<path style="fill:none;stroke-width:0.0125;stroke-linecap:butt;stroke-linejoin:miter;stroke:rgb(0%,0%,0%);stroke-opacity:1;stroke-miterlimit:10;" d="M 0 0.222222 L 0.421329 0.222222 " transform="matrix(6864,0,0,800,0,0)"/>
<path style=" stroke:none;fill-rule:nonzero;fill:rgb(0%,0%,0%);fill-opacity:1;" d="M 1224 167.777344 L 2036 167.777344 L 2036 187.777344 L 1224 187.777344 Z M 1224 167.777344 "/>
<path style=" stroke:none;fill-rule:nonzero;fill:rgb(0%,100%,0%);fill-opacity:1;" d="M 924 162.777344 L 940 162.777344 L 940 192.777344 L 924 192.777344 Z M 924 162.777344 "/>
<path style=" stroke:none;fill-rule:nonzero;fill:rgb(0%,100%,0%);fill-opacity:1;" d="M 932 162.777344 L 948 162.777344 L 948 192.777344 L 932 192.777344 Z M 932 162.777344 "/>
<path style=" stroke:none;fill-rule:nonzero;fill:rgb(0%,100%,0%);fill-opacity:1;" d="M 1012 162.777344 L 1028 162.777344 L 1028 192.777344 L 1012 192.777344 Z M 1012 162.777344 "/>
<path style=" stroke:none;fill-rule:nonzero;fill:rgb(0%,100%,0%);fill-opacity:1;" d="M 1140 162.777344 L 1156 162.777344 L 1156 192.777344 L 1140 192.777344 Z M 1140 162.777344 "/>
<path style=" stroke:none;fill-rule:nonzero;fill:rgb(0%,100%,0%);fill-opacity:1;" d="M 1468 162.777344 L 1484 162.777344 L 1484 192.777344 L 1468 192.777344 Z M 1468 162.777344 "/>
<path style=" stroke:none;fill-rule:nonzero;fill:rgb(100%,0%,0%);fill-opacity:1;" d="M 104 162.777344 L 116 162.777344 L 116 192.777344 L 104 192.777344 Z M 104 162.777344 "/>
<path style=" stroke:none;fill-rule:nonzero;fill:rgb(100%,0%,0%);fill-opacity:1;" d="M 144 162.777344 L 156 162.777344 L 156 192.777344 L 144 192.777344 Z M 144 162.777344 "/>
<path style=" stroke:none;fill-rule:nonzero;fill:rgb(100%,0%,0%);fill-opacity:1;" d="M 408 162.777344 L 420 162.777344 L 420 192.777344 L 408 192.777344 Z M 408 162.777344 "/>
<path style=" stroke:none;fill-rule:nonzero;fill:rgb(100%,0%,0%);fill-opacity:1;" d="M 504 162.777344 L 516 162.777344 L 516 192.777344 L 504 192.777344 Z M 504 162.777344 "/>
<path style=" stroke:none;fill-rule:nonzero;fill:rgb(100%,0%,0%);fill-opacity:1;" d="M 568 162.777344 L 580 162.777344 L 580 192.777344 L 568 192.777344 Z M 568 162.777344 "/>
<path style=" stroke:none;fill-rule:nonzero;fill:rgb(100%,0%,0%);fill-opacity:1;" d="M 672 162.777344 L 684 162.777344 L 684 192.777344 L 672 192.777344 Z M 672 162.777344 "/>
<path style=" stroke:none;fill-rule:nonzero;fill:rgb(100%,0%,0%);fill-opacity:1;" d="M 676 162.777344 L 688 162.777344 L 688 192.777344 L 676 192.777344 Z M 676 162.777344 "/>
<path style=" stroke:none;fill-rule:nonzero;fill:rgb(100%,0%,0%);fill-opacity:1;" d="M 712 162.777344 L 724 162.777344 L 724 192.777344 L 712 192.777344 Z M 712 162.777344 "/>
<path style=" stroke:none;fill-rule:nonzero;fill:rgb(100%,0%,0%);fill-opacity:1;" d="M 760 162.777344 L 772 162.777344 L 772 192.777344 L 760 192.777344 Z M 760 162.777344 "/>
<path style=" stroke:none;fill-rule:nonzero;fill:rgb(100%,0%,0%);fill-opacity:1;" d="M 764 162.777344 L 776 162.777344 L 776 192.777344 L 764 192.777344 Z M 764 162.777344 "/>
<path style=" stroke:none;fill-rule:nonzero;fill:rgb(100%,0%,0%);fill-opacity:1;" d="M 808 162.777344 L 820 162.777344 L 820 192.777344 L 808 192.777344 Z M 808 162.777344 "/>
<path style=" stroke:none;fill-rule:nonzero;fill:rgb(100%,0%,0%);fill-opacity:1;" d="M 812 162.777344 L 824 162.777344 L 824 192.777344 L 812 192.777344 Z M 812 162.777344 "/>
<path style=" stroke:none;fill-rule:nonzero;fill:rgb(100%,0%,0%);fill-opacity:1;" d="M 916 162.777344 L 928 162.777344 L 928 192.777344 L 916 192.777344 Z M 916 162.777344 "/>
<path style=" stroke:none;fill-rule:nonzero;fill:rgb(100%,0%,0%);fill-opacity:1;" d="M 948 162.777344 L 960 162.777344 L 960 192.777344 L 948 192.777344 Z M 948 162.777344 "/>
<path style=" stroke:none;fill-rule:nonzero;fill:rgb(100%,0%,0%);fill-opacity:1;" d="M 964 162.777344 L 976 162.777344 L 976 192.777344 L 964 192.777344 Z M 964 162.777344 "/>
<path style=" stroke:none;fill-rule:nonzero;fill:rgb(100%,0%,0%);fill-opacity:1;" d="M 980 162.777344 L 992 162.777344 L 992 192.777344 L 980 192.777344 Z M 980 162.777344 "/>
<path style=" stroke:none;fill-rule:nonzero;fill:rgb(100%,0%,0%);fill-opacity:1;" d="M 984 162.777344 L 996 162.777344 L 996 192.777344 L 984 192.777344 Z M 984 162.777344 "/>
<path style=" stroke:none;fill-rule:nonzero;fill:rgb(100%,0%,0%);fill-opacity:1;" d="M 988 162.777344 L 1000 162.777344 L 1000 192.777344 L 988 192.777344 Z M 988 162.777344 "/>
<path style=" stroke:none;fill-rule:nonzero;fill:rgb(100%,0%,0%);fill-opacity:1;" d="M 992 162.777344 L 1004 162.777344 L 1004 192.777344 L 992 192.777344 Z M 992 162.777344 "/>
<path style=" stroke:none;fill-rule:nonzero;fill:rgb(100%,0%,0%);fill-opacity:1;" d="M 1124 162.777344 L 1136 162.777344 L 1136 192.777344 L 1124 192.777344 Z M 1124 162.777344 "/>
<path style=" stroke:none;fill-rule:nonzero;fill:rgb(100%,0%,0%);fill-opacity:1;" d="M 1736 162.777344 L 1748 162.777344 L 1748 192.777344 L 1736 192.777344 Z M 1736 162.777344 "/>
<path style=" stroke:none;fill-rule:nonzero;fill:rgb(100%,0%,0%);fill-opacity:1;" d="M 1824 162.777344 L 1836 162.777344 L 1836 192.777344 L 1824 192.777344 Z M 1824 162.777344 "/>
<path style=" stroke:none;fill-rule:nonzero;fill:rgb(100%,0%,0%);fill-opacity:1;" d="M 2000 162.777344 L 2012 162.777344 L 2012 192.777344 L 2000 192.777344 Z M 2000 162.777344 "/>
<path style=" stroke:none;fill-rule:nonzero;fill:rgb(100%,0%,0%);fill-opacity:1;" d="M 2004 162.777344 L 2016 162.777344 L 2016 192.777344 L 2004 192.777344 Z M 2004 162.777344 "/>
<path style=" stroke:none;fill-rule:nonzero;fill:rgb(100%,0%,0%);fill-opacity:1;" d="M 2052 162.777344 L 2064 162.777344 L 2064 192.777344 L 2052 192.777344 Z M 2052 162.777344 "/>
<path style=" stroke:none;fill-rule:nonzero;fill:rgb(100%,0%,0%);fill-opacity:1;" d="M 2056 162.777344 L 2068 162.777344 L 2068 192.777344 L 2056 192.777344 Z M 2056 162.777344 "/>
<path style=" stroke:none;fill-rule:nonzero;fill:rgb(100%,0%,0%);fill-opacity:1;" d="M 2060 162.777344 L 2072 162.777344 L 2072 192.777344 L 2060 192.777344 Z M 2060 162.777344 "/>
<path style=" stroke:none;fill-rule:nonzero;fill:rgb(100%,0%,0%);fill-opacity:1;" d="M 2076 162.777344 L 2088 162.777344 L 2088 192.777344 L 2076 192.777344 Z M 2076 162.777344 "/>
<path style=" stroke:none;fill-rule:nonzero;fill:rgb(100%,0%,0%);fill-opacity:1;" d="M 2080 162.777344 L 2092 162.777344 L 2092 192.777344 L 2080 192.777344 Z M 2080 162.777344 "/>
<path style=" stroke:none;fill-rule:nonzero;fill:rgb(100%,0%,0%);fill-opacity:1;" d="M 2096 162.777344 L 2108 162.777344 L 2108 192.777344 L 2096 192.777344 Z M 2096 162.777344 "/>
<path style=" stroke:none;fill-rule:nonzero;fill:rgb(100%,0%,0%);fill-opacity:1;" d="M 2100 162.777344 L 2112 162.777344 L 2112 192.777344 L 2100 192.777344 Z M 2100 162.777344 "/>
<path style=" stroke:none;fill-rule:nonzero;fill:rgb(100%,0%,0%);fill-opacity:1;" d="M 2120 162.777344 L 2132 162.777344 L 2132 192.777344 L 2120 192.777344 Z M 2120 162.777344 "/>
<path style=" stroke:none;fill-rule:nonzero;fill:rgb(100%,0%,0%);fill-opacity:1;" d="M 2124 162.777344 L 2136 162.777344 L 2136 192.777344 L 2124 192.777344 Z M 2124 162.777344 "/>
<path style=" stroke:none;fill-rule:nonzero;fill:rgb(100%,0%,0%);fill-opacity:1;" d="M 2224 162.777344 L 2236 162.777344 L 2236 192.777344 L 2224 192.777344 Z M 2224 162.777344 "/>
<path style=" stroke:none;fill-rule:nonzero;fill:rgb(100%,0%,0%);fill-opacity:1;" d="M 2712 162.777344 L 2724 162.777344 L 2724 192.777344 L 2712 192.777344 Z M 2712 162.777344 "/>
<path style=" stroke:none;fill-rule:nonzero;fill:rgb(100%,0%,0%);fill-opacity:1;" d="M 2728 162.777344 L 2740 162.777344 L 2740 192.777344 L 2728 192.777344 Z M 2728 162.777344 "/>
<path style=" stroke:none;fill-rule:nonzero;fill:rgb(100%,0%,0%);fill-opacity:1;" d="M 2772 162.777344 L 2784 162.777344 L 2784 192.777344 L 2772 192.777344 Z M 2772 162.777344 "/>
<path style=" stroke:none;fill-rule:nonzero;fill:rgb(100%,0%,0%);fill-opacity:1;" d="M 2836 162.777344 L 2848 162.777344 L 2848 192.777344 L 2836 192.777344 Z M 2836 162.777344 "/>
<path style=" stroke:none;fill-rule:nonzero;fill:rgb(100%,0%,0%);fill-opacity:1;" d="M 2840 162.777344 L 2852 162.777344 L 2852 192.777344 L 2840 192.777344 Z M 2840 162.777344 "/>
<path style=" stroke:none;fill-rule:nonzero;fill:rgb(0%,0%,100%);fill-opacity:1;" d="M 4 162.777344 L 16 162.777344 L 16 192.777344 L 4 192.777344 Z M 4 162.777344 "/>
<path style=" stroke:none;fill-rule:nonzero;fill:rgb(0%,0%,100%);fill-opacity:1;" d="M 224 162.777344 L 236 162.777344 L 236 192.777344 L 224 192.777344 Z M 224 162.777344 "/>
<path style=" stroke:none;fill-rule:nonzero;fill:rgb(0%,0%,100%);fill-opacity:1;" d="M 328 162.777344 L 340 162.777344 L 340 192.777344 L 328 192.777344 Z M 328 162.777344 "/>
<path style=" stroke:none;fill-rule:nonzero;fill:rgb(0%,0%,100%);fill-opacity:1;" d="M 412 162.777344 L 424 162.777344 L 424 192.777344 L 412 192.777344 Z M 412 162.777344 "/>
<path style=" stroke:none;fill-rule:nonzero;fill:rgb(0%,0%,100%);fill-opacity:1;" d="M 508 162.777344 L 520 162.777344 L 520 192.777344 L 508 192.777344 Z M 508 162.777344 "/>
<path style=" stroke:none;fill-rule:nonzero;fill:rgb(0%,0%,100%);fill-opacity:1;" d="M 716 162.777344 L 728 162.777344 L 728 192.777344 L 716 192.777344 Z M 716 162.777344 "/>
<path style=" stroke:none;fill-rule:nonzero;fill:rgb(0%,0%,100%);fill-opacity:1;" d="M 852 162.777344 L 864 162.777344 L 864 192.777344 L 852 192.777344 Z M 852 162.777344 "/>
<path style=" stroke:none;fill-rule:nonzero;fill:rgb(0%,0%,100%);fill-opacity:1;" d="M 920 162.777344 L 932 162.777344 L 932 192.777344 L 920 192.777344 Z M 920 162.777344 "/>
<path style=" stroke:none;fill-rule:nonzero;fill:rgb(0%,0%,100%);fill-opacity:1;" d="M 952 162.777344 L 964 162.777344 L 964 192.777344 L 952 192.777344 Z M 952 162.777344 "/>
<path style=" stroke:none;fill-rule:nonzero;fill:rgb(0%,0%,100%);fill-opacity:1;" d="M 968 162.777344 L 980 162.777344 L 980 192.777344 L 968 192.777344 Z M 968 162.777344 "/>
<path style=" stroke:none;fill-rule:nonzero;fill:rgb(0%,0%,100%);fill-opacity:1;" d="M 996 162.777344 L 1008 162.777344 L 1008 192.777344 L 996 192.777344 Z M 996 162.777344 "/>
<path style=" stroke:none;fill-rule:nonzero;fill:rgb(0%,0%,100%);fill-opacity:1;" d="M 1160 162.777344 L 1172 162.777344 L 1172 192.777344 L 1160 192.777344 Z M 1160 162.777344 "/>
<path style=" stroke:none;fill-rule:nonzero;fill:rgb(0%,0%,100%);fill-opacity:1;" d="M 1536 162.777344 L 1548 162.777344 L 1548 192.777344 L 1536 192.777344 Z M 1536 162.777344 "/>
<path style=" stroke:none;fill-rule:nonzero;fill:rgb(0%,0%,100%);fill-opacity:1;" d="M 1552 162.777344 L 1564 162.777344 L 1564 192.777344 L 1552 192.777344 Z M 1552 162.777344 "/>
<path style=" stroke:none;fill-rule:nonzero;fill:rgb(0%,0%,100%);fill-opacity:1;" d="M 1740 162.777344 L 1752 162.777344 L 1752 192.777344 L 1740 192.777344 Z M 1740 162.777344 "/>
<path style=" stroke:none;fill-rule:nonzero;fill:rgb(0%,0%,100%);fill-opacity:1;" d="M 1980 162.777344 L 1992 162.777344 L 1992 192.777344 L 1980 192.777344 Z M 1980 162.777344 "/>
<path style=" stroke:none;fill-rule:nonzero;fill:rgb(0%,0%,100%);fill-opacity:1;" d="M 2008 162.777344 L 2020 162.777344 L 2020 192.777344 L 2008 192.777344 Z M 2008 162.777344 "/>
<path style=" stroke:none;fill-rule:nonzero;fill:rgb(0%,0%,100%);fill-opacity:1;" d="M 2148 162.777344 L 2160 162.777344 L 2160 192.777344 L 2148 192.777344 Z M 2148 162.777344 "/>
<path style=" stroke:none;fill-rule:nonzero;fill:rgb(0%,0%,100%);fill-opacity:1;" d="M 2732 162.777344 L 2744 162.777344 L 2744 192.777344 L 2732 192.777344 Z M 2732 162.777344 "/>
<path style="fill:none;stroke-width:0.0125;stroke-linecap:butt;stroke-linejoin:miter;stroke:rgb(0%,0%,0%);stroke-opacity:1;stroke-miterlimit:10;" d="M 0 0.333335 L 0.251748 0.333335 " transform="matrix(6864,0,0,800,0,0)"/>
<path style=" stroke:none;fill-rule:nonzero;fill:rgb(0%,0%,0%);fill-opacity:1;" d="M 672 256.667969 L 1052 256.667969 L 1052 276.667969 L 672 276.667969 Z M 672 256.667969 "/>
<path style=" stroke:none;fill-rule:nonzero;fill:rgb(100%,0%,0%);fill-opacity:1;" d="M 432 251.667969 L 444 251.667969 L 444 281.667969 L 432 281.667969 Z M 432 251.667969 "/>
<path style=" stroke:none;fill-rule:nonzero;fill:rgb(100%,0%,0%);fill-opacity:1;" d="M 436 251.667969 L 448 251.667969 L 448 281.667969 L 436 281.667969 Z M 436 251.667969 "/>
<path style=" stroke:none;fill-rule:nonzero;fill:rgb(100%,0%,0%);fill-opacity:1;" d="M 604 251.667969 L 616 251.667969 L 616 281.667969 L 604 281.667969 Z M 604 251.667969 "/>
<path style=" stroke:none;fill-rule:nonzero;fill:rgb(100%,0%,0%);fill-opacity:1;" d="M 852 251.667969 L 864 251.667969 L 864 281.667969 L 852 281.667969 Z M 852 251.667969 "/>
<path style=" stroke:none;fill-rule:nonzero;fill:rgb(100%,0%,0%);fill-opacity:1;" d="M 900 251.667969 L 912 251.667969 L 912 281.667969 L 900 281.667969 Z M 900 251.667969 "/>
<path style=" stroke:none;fill-rule:nonzero;fill:rgb(100%,0%,0%);fill-opacity:1;" d="M 960 251.667969 L 972 251.667969 L 972 281.667969 L 960 281.667969 Z M 960 251.667969 "/>
<path style=" stroke:none;fill-rule:nonzero;fill:rgb(100%,0%,0%);fill-opacity:1;" d="M 964 251.667969 L 976 251.667969 L 976 281.667969 L 964 281.667969 Z M 964 251.667969 "/>
<path style=" stroke:none;fill-rule:nonzero;fill:rgb(100%,0%,0%);fill-opacity:1;" d="M 1008 251.667969 L 1020 251.667969 L 1020 281.667969 L 1008 281.667969 Z M 1008 251.667969 "/>
<path style=" stroke:none;fill-rule:nonzero;fill:rgb(100%,0%,0%);fill-opacity:1;" d="M 1012 251.667969 L 1024 251.667969 L 1024 281.667969 L 1012 281.667969 Z M 1012 251.667969 "/>
<path style=" stroke:none;fill-rule:nonzero;fill:rgb(100%,0%,0%);fill-opacity:1;" d="M 1016 251.667969 L 1028 251.667969 L 1028 281.667969 L 1016 281.667969 Z M 1016 251.667969 "/>
<path style=" stroke:none;fill-rule:nonzero;fill:rgb(100%,0%,0%);fill-opacity:1;" d="M 1672 251.667969 L 1684 251.667969 L 1684 281.667969 L 1672 281.667969 Z M 1672 251.667969 "/>
<path style=" stroke:none;fill-rule:nonzero;fill:rgb(100%,0%,0%);fill-opacity:1;" d="M 1676 251.667969 L 1688 251.667969 L 1688 281.667969 L 1676 281.667969 Z M 1676 251.667969 "/>
<path style=" stroke:none;fill-rule:nonzero;fill:rgb(100%,0%,0%);fill-opacity:1;" d="M 1680 251.667969 L 1692 251.667969 L 1692 281.667969 L 1680 281.667969 Z M 1680 251.667969 "/>
<path style=" stroke:none;fill-rule:nonzero;fill:rgb(0%,0%,100%);fill-opacity:1;" d="M 104 251.667969 L 116 251.667969 L 116 281.667969 L 104 281.667969 Z M 104 251.667969 "/>
<path style=" stroke:none;fill-rule:nonzero;fill:rgb(0%,0%,100%);fill-opacity:1;" d="M 396 251.667969 L 408 251.667969 L 408 281.667969 L 396 281.667969 Z M 396 251.667969 "/>
<path style=" stroke:none;fill-rule:nonzero;fill:rgb(0%,0%,100%);fill-opacity:1;" d="M 588 251.667969 L 600 251.667969 L 600 281.667969 L 588 281.667969 Z M 588 251.667969 "/>
<path style=" stroke:none;fill-rule:nonzero;fill:rgb(0%,0%,100%);fill-opacity:1;" d="M 608 251.667969 L 620 251.667969 L 620 281.667969 L 608 281.667969 Z M 608 251.667969 "/>
<path style=" stroke:none;fill-rule:nonzero;fill:rgb(0%,0%,100%);fill-opacity:1;" d="M 652 251.667969 L 664 251.667969 L 664 281.667969 L 652 281.667969 Z M 652 251.667969 "/>
<path style=" stroke:none;fill-rule:nonzero;fill:rgb(0%,0%,100%);fill-opacity:1;" d="M 904 251.667969 L 916 251.667969 L 916 281.667969 L 904 281.667969 Z M 904 251.667969 "/>
<path style="fill:none;stroke-width:0.0125;stroke-linecap:butt;stroke-linejoin:miter;stroke:rgb(0%,0%,0%);stroke-opacity:1;stroke-miterlimit:10;" d="M 0 0.444443 L 0.251748 0.444443 " transform="matrix(6864,0,0,800,0,0)"/>
<path style=" stroke:none;fill-rule:nonzero;fill:rgb(0%,0%,0%);fill-opacity:1;" d="M 672 345.554688 L 1052 345.554688 L 1052 365.554688 L 672 365.554688 Z M 672 345.554688 "/>
<path style=" stroke:none;fill-rule:nonzero;fill:rgb(100%,0%,0%);fill-opacity:1;" d="M 432 340.554688 L 444 340.554688 L 444 370.554688 L 432 370.554688 Z M 432 340.554688 "/>
<path style=" stroke:none;fill-rule:nonzero;fill:rgb(100%,0%,0%);fill-opacity:1;" d="M 436 340.554688 L 448 340.554688 L 448 370.554688 L 436 370.554688 Z M 436 340.554688 "/>
<path style=" stroke:none;fill-rule:nonzero;fill:rgb(100%,0%,0%);fill-opacity:1;" d="M 604 340.554688 L 616 340.554688 L 616 370.554688 L 604 370.554688 Z M 604 340.554688 "/>
<path style=" stroke:none;fill-rule:nonzero;fill:rgb(100%,0%,0%);fill-opacity:1;" d="M 852 340.554688 L 864 340.554688 L 864 370.554688 L 852 370.554688 Z M 852 340.554688 "/>
<path style=" stroke:none;fill-rule:nonzero;fill:rgb(100%,0%,0%);fill-opacity:1;" d="M 900 340.554688 L 912 340.554688 L 912 370.554688 L 900 370.554688 Z M 900 340.554688 "/>
<path style=" stroke:none;fill-rule:nonzero;fill:rgb(100%,0%,0%);fill-opacity:1;" d="M 960 340.554688 L 972 340.554688 L 972 370.554688 L 960 370.554688 Z M 960 340.554688 "/>
<path style=" stroke:none;fill-rule:nonzero;fill:rgb(100%,0%,0%);fill-opacity:1;" d="M 964 340.554688 L 976 340.554688 L 976 370.554688 L 964 370.554688 Z M 964 340.554688 "/>
<path style=" stroke:none;fill-rule:nonzero;fill:rgb(100%,0%,0%);fill-opacity:1;" d="M 1008 340.554688 L 1020 340.554688 L 1020 370.554688 L 1008 370.554688 Z M 1008 340.554688 "/>
<path style=" stroke:none;fill-rule:nonzero;fill:rgb(100%,0%,0%);fill-opacity:1;" d="M 1012 340.554688 L 1024 340.554688 L 1024 370.554688 L 1012 370.554688 Z M 1012 340.554688 "/>
<path style=" stroke:none;fill-rule:nonzero;fill:rgb(100%,0%,0%);fill-opacity:1;" d="M 1016 340.554688 L 1028 340.554688 L 1028 370.554688 L 1016 370.554688 Z M 1016 340.554688 "/>
<path style=" stroke:none;fill-rule:nonzero;fill:rgb(100%,0%,0%);fill-opacity:1;" d="M 1672 340.554688 L 1684 340.554688 L 1684 370.554688 L 1672 370.554688 Z M 1672 340.554688 "/>
<path style=" stroke:none;fill-rule:nonzero;fill:rgb(100%,0%,0%);fill-opacity:1;" d="M 1676 340.554688 L 1688 340.554688 L 1688 370.554688 L 1676 370.554688 Z M 1676 340.554688 "/>
<path style=" stroke:none;fill-rule:nonzero;fill:rgb(100%,0%,0%);fill-opacity:1;" d="M 1680 340.554688 L 1692 340.554688 L 1692 370.554688 L 1680 370.554688 Z M 1680 340.554688 "/>
<path style=" stroke:none;fill-rule:nonzero;fill:rgb(0%,0%,100%);fill-opacity:1;" d="M 104 340.554688 L 116 340.554688 L 116 370.554688 L 104 370.554688 Z M 104 340.554688 "/>
<path style=" stroke:none;fill-rule:nonzero;fill:rgb(0%,0%,100%);fill-opacity:1;" d="M 396 340.554688 L 408 340.554688 L 408 370.554688 L 396 370.554688 Z M 396 340.554688 "/>
<path style=" stroke:none;fill-rule:nonzero;fill:rgb(0%,0%,100%);fill-opacity:1;" d="M 588 340.554688 L 600 340.554688 L 600 370.554688 L 588 370.554688 Z M 588 340.554688 "/>
<path style=" stroke:none;fill-rule:nonzero;fill:rgb(0%,0%,100%);fill-opacity:1;" d="M 608 340.554688 L 620 340.554688 L 620 370.554688 L 608 370.554688 Z M 608 340.554688 "/>
<path style=" stroke:none;fill-rule:nonzero;fill:rgb(0%,0%,100%);fill-opacity:1;" d="M 652 340.554688 L 664 340.554688 L 664 370.554688 L 652 370.554688 Z M 652 340.554688 "/>
<path style=" stroke:none;fill-rule:nonzero;fill:rgb(0%,0%,100%);fill-opacity:1;" d="M 904 340.554688 L 916 340.554688 L 916 370.554688 L 904 370.554688 Z M 904 340.554688 "/>
<path style="fill:none;stroke-width:0.0125;stroke-linecap:butt;stroke-linejoin:miter;stroke:rgb(0%,0%,0%);stroke-opacity:1;stroke-miterlimit:10;" d="M 0 0.555557 L 0.251748 0.555557 " transform="matrix(6864,0,0,800,0,0)"/>
<path style=" stroke:none;fill-rule:nonzero;fill:rgb(0%,0%,0%);fill-opacity:1;" d="M 672 434.445312 L 1052 434.445312 L 1052 454.445312 L 672 454.445312 Z M 672 434.445312 "/>
<path style=" stroke:none;fill-rule:nonzero;fill:rgb(100%,0%,0%);fill-opacity:1;" d="M 432 429.445312 L 444 429.445312 L 444 459.445312 L 432 459.445312 Z M 432 429.445312 "/>
<path style=" stroke:none;fill-rule:nonzero;fill:rgb(100%,0%,0%);fill-opacity:1;" d="M 436 429.445312 L 448 429.445312 L 448 459.445312 L 436 459.445312 Z M 436 429.445312 "/>
<path style=" stroke:none;fill-rule:nonzero;fill:rgb(100%,0%,0%);fill-opacity:1;" d="M 604 429.445312 L 616 429.445312 L 616 459.445312 L 604 459.445312 Z M 604 429.445312 "/>
<path style=" stroke:none;fill-rule:nonzero;fill:rgb(100%,0%,0%);fill-opacity:1;" d="M 852 429.445312 L 864 429.445312 L 864 459.445312 L 852 459.445312 Z M 852 429.445312 "/>
<path style=" stroke:none;fill-rule:nonzero;fill:rgb(100%,0%,0%);fill-opacity:1;" d="M 900 429.445312 L 912 429.445312 L 912 459.445312 L 900 459.445312 Z M 900 429.445312 "/>
<path style=" stroke:none;fill-rule:nonzero;fill:rgb(100%,0%,0%);fill-opacity:1;" d="M 960 429.445312 L 972 429.445312 L 972 459.445312 L 960 459.445312 Z M 960 429.445312 "/>
<path style=" stroke:none;fill-rule:nonzero;fill:rgb(100%,0%,0%);fill-opacity:1;" d="M 964 429.445312 L 976 429.445312 L 976 459.445312 L 964 459.445312 Z M 964 429.445312 "/>
<path style=" stroke:none;fill-rule:nonzero;fill:rgb(100%,0%,0%);fill-opacity:1;" d="M 1008 429.445312 L 1020 429.445312 L 1020 459.445312 L 1008 459.445312 Z M 1008 429.445312 "/>
<path style=" stroke:none;fill-rule:nonzero;fill:rgb(100%,0%,0%);fill-opacity:1;" d="M 1012 429.445312 L 1024 429.445312 L 1024 459.445312 L 1012 459.445312 Z M 1012 429.445312 "/>
<path style=" stroke:none;fill-rule:nonzero;fill:rgb(100%,0%,0%);fill-opacity:1;" d="M 1016 429.445312 L 1028 429.445312 L 1028 459.445312 L 1016 459.445312 Z M 1016 429.445312 "/>
<path style=" stroke:none;fill-rule:nonzero;fill:rgb(100%,0%,0%);fill-opacity:1;" d="M 1672 429.445312 L 1684 429.445312 L 1684 459.445312 L 1672 459.445312 Z M 1672 429.445312 "/>
<path style=" stroke:none;fill-rule:nonzero;fill:rgb(100%,0%,0%);fill-opacity:1;" d="M 1676 429.445312 L 1688 429.445312 L 1688 459.445312 L 1676 459.445312 Z M 1676 429.445312 "/>
<path style=" stroke:none;fill-rule:nonzero;fill:rgb(100%,0%,0%);fill-opacity:1;" d="M 1680 429.445312 L 1692 429.445312 L 1692 459.445312 L 1680 459.445312 Z M 1680 429.445312 "/>
<path style=" stroke:none;fill-rule:nonzero;fill:rgb(0%,0%,100%);fill-opacity:1;" d="M 104 429.445312 L 116 429.445312 L 116 459.445312 L 104 459.445312 Z M 104 429.445312 "/>
<path style=" stroke:none;fill-rule:nonzero;fill:rgb(0%,0%,100%);fill-opacity:1;" d="M 396 429.445312 L 408 429.445312 L 408 459.445312 L 396 459.445312 Z M 396 429.445312 "/>
<path style=" stroke:none;fill-rule:nonzero;fill:rgb(0%,0%,100%);fill-opacity:1;" d="M 588 429.445312 L 600 429.445312 L 600 459.445312 L 588 459.445312 Z M 588 429.445312 "/>
<path style=" stroke:none;fill-rule:nonzero;fill:rgb(0%,0%,100%);fill-opacity:1;" d="M 608 429.445312 L 620 429.445312 L 620 459.445312 L 608 459.445312 Z M 608 429.445312 "/>
<path style=" stroke:none;fill-rule:nonzero;fill:rgb(0%,0%,100%);fill-opacity:1;" d="M 652 429.445312 L 664 429.445312 L 664 459.445312 L 652 459.445312 Z M 652 429.445312 "/>
<path style=" stroke:none;fill-rule:nonzero;fill:rgb(0%,0%,100%);fill-opacity:1;" d="M 904 429.445312 L 916 429.445312 L 916 459.445312 L 904 459.445312 Z M 904 429.445312 "/>
<path style="fill:none;stroke-width:0.0125;stroke-linecap:butt;stroke-linejoin:miter;stroke:rgb(0%,0%,0%);stroke-opacity:1;stroke-miterlimit:10;" d="M 0 0.666665 L 0.251748 0.666665 " transform="matrix(6864,0,0,800,0,0)"/>
<path style=" stroke:none;fill-rule:nonzero;fill:rgb(0%,0%,0%);fill-opacity:1;" d="M 672 523.332031 L 1052 523.332031 L 1052 543.332031 L 672 543.332031 Z M 672 523.332031 "/>
<path style=" stroke:none;fill-rule:nonzero;fill:rgb(100%,0%,0%);fill-opacity:1;" d="M 432 518.332031 L 444 518.332031 L 444 548.332031 L 432 548.332031 Z M 432 518.332031 "/>
<path style=" stroke:none;fill-rule:nonzero;fill:rgb(100%,0%,0%);fill-opacity:1;" d="M 436 518.332031 L 448 518.332031 L 448 548.332031 L 436 548.332031 Z M 436 518.332031 "/>
<path style=" stroke:none;fill-rule:nonzero;fill:rgb(100%,0%,0%);fill-opacity:1;" d="M 604 518.332031 L 616 518.332031 L 616 548.332031 L 604 548.332031 Z M 604 518.332031 "/>
<path style=" stroke:none;fill-rule:nonzero;fill:rgb(100%,0%,0%);fill-opacity:1;" d="M 852 518.332031 L 864 518.332031 L 864 548.332031 L 852 548.332031 Z M 852 518.332031 "/>
<path style=" stroke:none;fill-rule:nonzero;fill:rgb(100%,0%,0%);fill-opacity:1;" d="M 900 518.332031 L 912 518.332031 L 912 548.332031 L 900 548.332031 Z M 900 518.332031 "/>
<path style=" stroke:none;fill-rule:nonzero;fill:rgb(100%,0%,0%);fill-opacity:1;" d="M 960 518.332031 L 972 518.332031 L 972 548.332031 L 960 548.332031 Z M 960 518.332031 "/>
<path style=" stroke:none;fill-rule:nonzero;fill:rgb(100%,0%,0%);fill-opacity:1;" d="M 964 518.332031 L 976 518.332031 L 976 548.332031 L 964 548.332031 Z M 964 518.332031 "/>
<path style=" stroke:none;fill-rule:nonzero;fill:rgb(100%,0%,0%);fill-opacity:1;" d="M 1008 518.332031 L 1020 518.332031 L 1020 548.332031 L 1008 548.332031 Z M 1008 518.332031 "/>
<path style=" stroke:none;fill-rule:nonzero;fill:rgb(100%,0%,0%);fill-opacity:1;" d="M 1012 518.332031 L 1024 518.332031 L 1024 548.332031 L 1012 548.332031 Z M 1012 518.332031 "/>
<path style=" stroke:none;fill-rule:nonzero;fill:rgb(100%,0%,0%);fill-opacity:1;" d="M 1016 518.332031 L 1028 518.332031 L 1028 548.332031 L 1016 548.332031 Z M 1016 518.332031 "/>
<path style=" stroke:none;fill-rule:nonzero;fill:rgb(100%,0%,0%);fill-opacity:1;" d="M 1672 518.332031 L 1684 518.332031 L 1684 548.332031 L 1672 548.332031 Z M 1672 518.332031 "/>
<path style=" stroke:none;fill-rule:nonzero;fill:rgb(100%,0%,0%);fill-opacity:1;" d="M 1676 518.332031 L 1688 518.332031 L 1688 548.332031 L 1676 548.332031 Z M 1676 518.332031 "/>
<path style=" stroke:none;fill-rule:nonzero;fill:rgb(100%,0%,0%);fill-opacity:1;" d="M 1680 518.332031 L 1692 518.332031 L 1692 548.332031 L 1680 548.332031 Z M 1680 518.332031 "/>
<path style=" stroke:none;fill-rule:nonzero;fill:rgb(0%,0%,100%);fill-opacity:1;" d="M 104 518.332031 L 116 518.332031 L 116 548.332031 L 104 548.332031 Z M 104 518.332031 "/>
<path style=" stroke:none;fill-rule:nonzero;fill:rgb(0%,0%,100%);fill-opacity:1;" d="M 396 518.332031 L 408 518.332031 L 408 548.332031 L 396 548.332031 Z M 396 518.332031 "/>
<path style=" stroke:none;fill-rule:nonzero;fill:rgb(0%,0%,100%);fill-opacity:1;" d="M 588 518.332031 L 600 518.332031 L 600 548.332031 L 588 548.332031 Z M 588 518.332031 "/>
<path style=" stroke:none;fill-rule:nonzero;fill:rgb(0%,0%,100%);fill-opacity:1;" d="M 608 518.332031 L 620 518.332031 L 620 548.332031 L 608 548.332031 Z M 608 518.332031 "/>
<path style=" stroke:none;fill-rule:nonzero;fill:rgb(0%,0%,100%);fill-opacity:1;" d="M 652 518.332031 L 664 518.332031 L 664 548.332031 L 652 548.332031 Z M 652 518.332031 "/>
<path style=" stroke:none;fill-rule:nonzero;fill:rgb(0%,0%,100%);fill-opacity:1;" d="M 904 518.332031 L 916 518.332031 L 916 548.332031 L 904 548.332031 Z M 904 518.332031 "/>
<path style="fill:none;stroke-width:0.0125;stroke-linecap:butt;stroke-linejoin:miter;stroke:rgb(0%,0%,0%);stroke-opacity:1;stroke-miterlimit:10;" d="M 0 0.777778 L 0.251748 0.777778 " transform="matrix(6864,0,0,800,0,0)"/>
<path style=" stroke:none;fill-rule:nonzero;fill:rgb(0%,0%,0%);fill-opacity:1;" d="M 672 612.222656 L 1052 612.222656 L 1052 632.222656 L 672 632.222656 Z M 672 612.222656 "/>
<path style=" stroke:none;fill-rule:nonzero;fill:rgb(100%,0%,0%);fill-opacity:1;" d="M 432 607.222656 L 444 607.222656 L 444 637.222656 L 432 637.222656 Z M 432 607.222656 "/>
<path style=" stroke:none;fill-rule:nonzero;fill:rgb(100%,0%,0%);fill-opacity:1;" d="M 436 607.222656 L 448 607.222656 L 448 637.222656 L 436 637.222656 Z M 436 607.222656 "/>
<path style=" stroke:none;fill-rule:nonzero;fill:rgb(100%,0%,0%);fill-opacity:1;" d="M 604 607.222656 L 616 607.222656 L 616 637.222656 L 604 637.222656 Z M 604 607.222656 "/>
<path style=" stroke:none;fill-rule:nonzero;fill:rgb(100%,0%,0%);fill-opacity:1;" d="M 852 607.222656 L 864 607.222656 L 864 637.222656 L 852 637.222656 Z M 852 607.222656 "/>
<path style=" stroke:none;fill-rule:nonzero;fill:rgb(100%,0%,0%);fill-opacity:1;" d="M 900 607.222656 L 912 607.222656 L 912 637.222656 L 900 637.222656 Z M 900 607.222656 "/>
<path style=" stroke:none;fill-rule:nonzero;fill:rgb(100%,0%,0%);fill-opacity:1;" d="M 960 607.222656 L 972 607.222656 L 972 637.222656 L 960 637.222656 Z M 960 607.222656 "/>
<path style=" stroke:none;fill-rule:nonzero;fill:rgb(100%,0%,0%);fill-opacity:1;" d="M 964 607.222656 L 976 607.222656 L 976 637.222656 L 964 637.222656 Z M 964 607.222656 "/>
<path style=" stroke:none;fill-rule:nonzero;fill:rgb(100%,0%,0%);fill-opacity:1;" d="M 1008 607.222656 L 1020 607.222656 L 1020 637.222656 L 1008 637.222656 Z M 1008 607.222656 "/>
<path style=" stroke:none;fill-rule:nonzero;fill:rgb(100%,0%,0%);fill-opacity:1;" d="M 1012 607.222656 L 1024 607.222656 L 1024 637.222656 L 1012 637.222656 Z M 1012 607.222656 "/>
<path style=" stroke:none;fill-rule:nonzero;fill:rgb(100%,0%,0%);fill-opacity:1;" d="M 1016 607.222656 L 1028 607.222656 L 1028 637.222656 L 1016 637.222656 Z M 1016 607.222656 "/>
<path style=" stroke:none;fill-rule:nonzero;fill:rgb(100%,0%,0%);fill-opacity:1;" d="M 1672 607.222656 L 1684 607.222656 L 1684 637.222656 L 1672 637.222656 Z M 1672 607.222656 "/>
<path style=" stroke:none;fill-rule:nonzero;fill:rgb(100%,0%,0%);fill-opacity:1;" d="M 1676 607.222656 L 1688 607.222656 L 1688 637.222656 L 1676 637.222656 Z M 1676 607.222656 "/>
<path style=" stroke:none;fill-rule:nonzero;fill:rgb(100%,0%,0%);fill-opacity:1;" d="M 1680 607.222656 L 1692 607.222656 L 1692 637.222656 L 1680 637.222656 Z M 1680 607.222656 "/>
<path style=" stroke:none;fill-rule:nonzero;fill:rgb(0%,0%,100%);fill-opacity:1;" d="M 104 607.222656 L 116 607.222656 L 116 637.222656 L 104 637.222656 Z M 104 607.222656 "/>
<path style=" stroke:none;fill-rule:nonzero;fill:rgb(0%,0%,100%);fill-opacity:1;" d="M 396 607.222656 L 408 607.222656 L 408 637.222656 L 396 637.222656 Z M 396 607.222656 "/>
<path style=" stroke:none;fill-rule:nonzero;fill:rgb(0%,0%,100%);fill-opacity:1;" d="M 588 607.222656 L 600 607.222656 L 600 637.222656 L 588 637.222656 Z M 588 607.222656 "/>
<path style=" stroke:none;fill-rule:nonzero;fill:rgb(0%,0%,100%);fill-opacity:1;" d="M 608 607.222656 L 620 607.222656 L 620 637.222656 L 608 637.222656 Z M 608 607.222656 "/>
<path style=" stroke:none;fill-rule:nonzero;fill:rgb(0%,0%,100%);fill-opacity:1;" d="M 652 607.222656 L 664 607.222656 L 664 637.222656 L 652 637.222656 Z M 652 607.222656 "/>
<path style=" stroke:none;fill-rule:nonzero;fill:rgb(0%,0%,100%);fill-opacity:1;" d="M 904 607.222656 L 916 607.222656 L 916 637.222656 L 904 637.222656 Z M 904 607.222656 "/>
<path style="fill:none;stroke-width:0.0125;stroke-linecap:butt;stroke-linejoin:miter;stroke:rgb(0%,0%,0%);stroke-opacity:1;stroke-miterlimit:10;" d="M 0 0.888887 L 0.251748 0.888887 " transform="matrix(6864,0,0,800,0,0)"/>
<path style=" stroke:none;fill-rule:nonzero;fill:rgb(0%,0%,0%);fill-opacity:1;" d="M 672 701.109375 L 1052 701.109375 L 1052 721.109375 L 672 721.109375 Z M 672 701.109375 "/>
<path style=" stroke:none;fill-rule:nonzero;fill:rgb(100%,0%,0%);fill-opacity:1;" d="M 432 696.109375 L 444 696.109375 L 444 726.109375 L 432 726.109375 Z M 432 696.109375 "/>
<path style=" stroke:none;fill-rule:nonzero;fill:rgb(100%,0%,0%);fill-opacity:1;" d="M 436 696.109375 L 448 696.109375 L 448 726.109375 L 436 726.109375 Z M 436 696.109375 "/>
<path style=" stroke:none;fill-rule:nonzero;fill:rgb(100%,0%,0%);fill-opacity:1;" d="M 604 696.109375 L 616 696.109375 L 616 726.109375 L 604 726.109375 Z M 604 696.109375 "/>
<path style=" stroke:none;fill-rule:nonzero;fill:rgb(100%,0%,0%);fill-opacity:1;" d="M 852 696.109375 L 864 696.109375 L 864 726.109375 L 852 726.109375 Z M 852 696.109375 "/>
<path style=" stroke:none;fill-rule:nonzero;fill:rgb(100%,0%,0%);fill-opacity:1;" d="M 900 696.109375 L 912 696.109375 L 912 726.109375 L 900 726.109375 Z M 900 696.109375 "/>
<path style=" stroke:none;fill-rule:nonzero;fill:rgb(100%,0%,0%);fill-opacity:1;" d="M 960 696.109375 L 972 696.109375 L 972 726.109375 L 960 726.109375 Z M 960 696.109375 "/>
<path style=" stroke:none;fill-rule:nonzero;fill:rgb(100%,0%,0%);fill-opacity:1;" d="M 964 696.109375 L 976 696.109375 L 976 726.109375 L 964 726.109375 Z M 964 696.109375 "/>
<path style=" stroke:none;fill-rule:nonzero;fill:rgb(100%,0%,0%);fill-opacity:1;" d="M 1008 696.109375 L 1020 696.109375 L 1020 726.109375 L 1008 726.109375 Z M 1008 696.109375 "/>
<path style=" stroke:none;fill-rule:nonzero;fill:rgb(100%,0%,0%);fill-opacity:1;" d="M 1012 696.109375 L 1024 696.109375 L 1024 726.109375 L 1012 726.109375 Z M 1012 696.109375 "/>
<path style=" stroke:none;fill-rule:nonzero;fill:rgb(100%,0%,0%);fill-opacity:1;" d="M 1016 696.109375 L 1028 696.109375 L 1028 726.109375 L 1016 726.109375 Z M 1016 696.109375 "/>
<path style=" stroke:none;fill-rule:nonzero;fill:rgb(100%,0%,0%);fill-opacity:1;" d="M 1672 696.109375 L 1684 696.109375 L 1684 726.109375 L 1672 726.109375 Z M 1672 696.109375 "/>
<path style=" stroke:none;fill-rule:nonzero;fill:rgb(100%,0%,0%);fill-opacity:1;" d="M 1676 696.109375 L 1688 696.109375 L 1688 726.109375 L 1676 726.109375 Z M 1676 696.109375 "/>
<path style=" stroke:none;fill-rule:nonzero;fill:rgb(100%,0%,0%);fill-opacity:1;" d="M 1680 696.109375 L 1692 696.109375 L 1692 726.109375 L 1680 726.109375 Z M 1680 696.109375 "/>
<path style=" stroke:none;fill-rule:nonzero;fill:rgb(0%,0%,100%);fill-opacity:1;" d="M 104 696.109375 L 116 696.109375 L 116 726.109375 L 104 726.109375 Z M 104 696.109375 "/>
<path style=" stroke:none;fill-rule:nonzero;fill:rgb(0%,0%,100%);fill-opacity:1;" d="M 396 696.109375 L 408 696.109375 L 408 726.109375 L 396 726.109375 Z M 396 696.109375 "/>
<path style=" stroke:none;fill-rule:nonzero;fill:rgb(0%,0%,100%);fill-opacity:1;" d="M 588 696.109375 L 600 696.109375 L 600 726.109375 L 588 726.109375 Z M 588 696.109375 "/>
<path style=" stroke:none;fill-rule:nonzero;fill:rgb(0%,0%,100%);fill-opacity:1;" d="M 608 696.109375 L 620 696.109375 L 620 726.109375 L 608 726.109375 Z M 608 696.109375 "/>
<path style=" stroke:none;fill-rule:nonzero;fill:rgb(0%,0%,100%);fill-opacity:1;" d="M 652 696.109375 L 664 696.109375 L 664 726.109375 L 652 726.109375 Z M 652 696.109375 "/>
<path style=" stroke:none;fill-rule:nonzero;fill:rgb(0%,0%,100%);fill-opacity:1;" d="M 904 696.109375 L 916 696.109375 L 916 726.109375 L 904 726.109375 Z M 904 696.109375 "/>
</g>
</svg>
